<?xml version="1.0" encoding="UTF-8" standalone="no"?>
<!-- Generator: Adobe Illustrator 16.0.0, SVG Export Plug-In . SVG Version: 6.00 Build 0)  -->

<svg
   xmlns:dc="http://purl.org/dc/elements/1.1/"
   xmlns:cc="http://creativecommons.org/ns#"
   xmlns:rdf="http://www.w3.org/1999/02/22-rdf-syntax-ns#"
   xmlns:svg="http://www.w3.org/2000/svg"
   xmlns="http://www.w3.org/2000/svg"
   xmlns:sodipodi="http://sodipodi.sourceforge.net/DTD/sodipodi-0.dtd"
   xmlns:inkscape="http://www.inkscape.org/namespaces/inkscape"
   version="1.1"
   id="Capa_1"
   x="0px"
   y="0px"
   width="512px"
   height="512px"
   viewBox="0 0 32.037 32.037"
   style="enable-background:new 0 0 32.037 32.037;"
   xml:space="preserve"
   sodipodi:docname="deck.svg"
   inkscape:version="0.92.0 r15299"><metadata
     id="metadata3733"><rdf:RDF><cc:Work
         rdf:about=""><dc:format>image/svg+xml</dc:format><dc:type
           rdf:resource="http://purl.org/dc/dcmitype/StillImage" /></cc:Work></rdf:RDF></metadata><defs
     id="defs3731" /><sodipodi:namedview
     pagecolor="#ffffff"
     bordercolor="#666666"
     borderopacity="1"
     objecttolerance="10"
     gridtolerance="10"
     guidetolerance="10"
     inkscape:pageopacity="0"
     inkscape:pageshadow="2"
     inkscape:window-width="1600"
     inkscape:window-height="837"
     id="namedview3729"
     showgrid="false"
     inkscape:zoom="0.43852551"
     inkscape:cx="256"
     inkscape:cy="316.92139"
     inkscape:window-x="-8"
     inkscape:window-y="-8"
     inkscape:window-maximized="1"
     inkscape:current-layer="g3694" /><g
     id="g3696"><g
       id="g3694"><path
         d="M3.999,21.225L2.517,11.34c0-1.216,0.989-2.206,2.206-2.206h22.501c1.216,0,2.205,0.989,2.205,2.206l-1.317,9.772h1.973    l1.318-9.772c0-2.308-1.871-4.179-4.179-4.179H4.723c-2.308,0-4.179,1.871-4.179,4.179l1.482,9.885H3.999z"
         fill="#3b5998"
         id="path3686" /><path
         d="M1.69,22.52c-0.409,0-0.797,0.179-1.065,0.487c-0.268,0.31-0.387,0.72-0.328,1.124l1.151,7.906h29.14l1.151-7.907    c0.059-0.403-0.062-0.815-0.328-1.124s-0.656-0.486-1.065-0.486H1.69L1.69,22.52z"
         fill="#3b5998"
         id="path3688" /><path
         d="M25.843,5.585L26.2,4.042c0.036-0.156-0.001-0.321-0.101-0.446c-0.101-0.126-0.251-0.199-0.412-0.199H5.469    c-0.165,0-0.32,0.076-0.422,0.205c-0.102,0.13-0.138,0.299-0.098,0.459l0.377,1.523L25.843,5.585L25.843,5.585z"
         fill="#3b5998"
         id="path3690" /><path
         d="M23.818,2.187l0.29-1.565c0.028-0.154-0.014-0.312-0.113-0.432C23.895,0.07,23.747,0,23.589,0H7.551    C7.394,0,7.245,0.071,7.145,0.192c-0.1,0.122-0.14,0.282-0.109,0.436l0.309,1.559H23.818z"
         fill="#3b5998"
         id="path3692" /><path
         inkscape:connector-curvature="0"
         style="fill:#3b5998;stroke-width:0.99999994"
         d="m 24.034686,14.87585 0.29,-1.565 c 0.028,-0.154 -0.014,-0.312 -0.113,-0.432 -0.100001,-0.12 -0.248,-0.19 -0.406,-0.19 H 7.7676861 c -0.157,0 -0.306,0.071 -0.406,0.192 -0.1,0.122 -0.14,0.282 -0.109,0.436 l 0.309,1.559 z"
         id="path3692-0" /><path
         inkscape:connector-curvature="0"
         style="fill:#3b5998;stroke-width:0.99999994"
         d="m 24.116914,19.233943 0.29,-1.565 c 0.028,-0.154 -0.014,-0.312 -0.113,-0.432 -0.100001,-0.12 -0.248,-0.19 -0.406,-0.19 H 7.8499143 c -0.157,0 -0.306,0.071 -0.406,0.192 -0.1,0.122 -0.14,0.282 -0.109,0.436 l 0.309,1.559 z"
         id="path3692-9" /></g></g><g
     id="g3698" /><g
     id="g3700" /><g
     id="g3702" /><g
     id="g3704" /><g
     id="g3706" /><g
     id="g3708" /><g
     id="g3710" /><g
     id="g3712" /><g
     id="g3714" /><g
     id="g3716" /><g
     id="g3718" /><g
     id="g3720" /><g
     id="g3722" /><g
     id="g3724" /><g
     id="g3726" /></svg>