<?xml version="1.0" encoding="UTF-8" standalone="no"?>
<!-- Created with Inkscape (http://www.inkscape.org/) -->

<svg
   xmlns:dc="http://purl.org/dc/elements/1.1/"
   xmlns:cc="http://creativecommons.org/ns#"
   xmlns:rdf="http://www.w3.org/1999/02/22-rdf-syntax-ns#"
   xmlns:svg="http://www.w3.org/2000/svg"
   xmlns="http://www.w3.org/2000/svg"
   xmlns:xlink="http://www.w3.org/1999/xlink"
   xmlns:sodipodi="http://sodipodi.sourceforge.net/DTD/sodipodi-0.dtd"
   xmlns:inkscape="http://www.inkscape.org/namespaces/inkscape"
   width="210mm"
   height="297mm"
   viewBox="0 0 210 297"
   version="1.1"
   id="svg10072"
   inkscape:version="0.92.0 r15299"
   sodipodi:docname="EqualsWord.svg">
  <defs
     id="defs10066">
    <radialGradient
       inkscape:collect="always"
       xlink:href="#linearGradient4537"
       id="radialGradient4539-6"
       cx="68.955147"
       cy="129.67009"
       fx="68.955147"
       fy="129.67009"
       r="15.445553"
       gradientUnits="userSpaceOnUse"
       gradientTransform="matrix(1.6008609,2.4446801e-7,-2.2428143e-7,1.4686722,-9.4142161,-27.640921)" />
    <linearGradient
       inkscape:collect="always"
       id="linearGradient4537">
      <stop
         style="stop-color:#f4e3d7;stop-opacity:1;"
         offset="0"
         id="stop4533" />
      <stop
         style="stop-color:#f4e3d7;stop-opacity:0;"
         offset="1"
         id="stop4535" />
    </linearGradient>
  </defs>
  <sodipodi:namedview
     id="base"
     pagecolor="#ffffff"
     bordercolor="#666666"
     borderopacity="1.0"
     inkscape:pageopacity="0.0"
     inkscape:pageshadow="2"
     inkscape:zoom="3.55"
     inkscape:cx="354.22535"
     inkscape:cy="563.64471"
     inkscape:document-units="mm"
     inkscape:current-layer="g10128"
     showgrid="false"
     inkscape:window-width="1600"
     inkscape:window-height="837"
     inkscape:window-x="-8"
     inkscape:window-y="-8"
     inkscape:window-maximized="1" />
  <metadata
     id="metadata10069">
    <rdf:RDF>
      <cc:Work
         rdf:about="">
        <dc:format>image/svg+xml</dc:format>
        <dc:type
           rdf:resource="http://purl.org/dc/dcmitype/StillImage" />
        <dc:title></dc:title>
      </cc:Work>
    </rdf:RDF>
  </metadata>
  <g
     inkscape:label="Calque 1"
     inkscape:groupmode="layer"
     id="layer1">
    <g
       id="g10264">
      <g
         transform="matrix(0.02739958,0,0,0.02739958,80.265993,141.07887)"
         id="g10128">
        <g
           id="g10838">
          <g
             transform="matrix(36.49691,0,0,36.49691,-3637.2955,-5695.1663)"
             id="g4682"
             style="">
            <rect
               id="rect3696-7"
               width="30.626106"
               height="30.626106"
               x="85.660294"
               y="146.93208"
               style="opacity:1;fill:url(#radialGradient4539-6);fill-opacity:1;stroke:#000000;stroke-width:0.26499999;stroke-linejoin:round;stroke-miterlimit:4;stroke-dasharray:none;stroke-opacity:1" />
            <rect
               style="opacity:1;fill:#e3dedb;fill-opacity:1;stroke:#000000;stroke-width:0.24400817;stroke-linejoin:round;stroke-miterlimit:4;stroke-dasharray:none;stroke-opacity:1"
               id="rect4637"
               width="9.6728554"
               height="2.4339576"
               x="87.227501"
               y="159.45044" />
            <rect
               style="opacity:1;fill:#e3dedb;fill-opacity:1;stroke:#000000;stroke-width:0.24973895;stroke-linejoin:round;stroke-miterlimit:4;stroke-dasharray:none;stroke-opacity:1"
               id="rect4642"
               width="9.6733112"
               height="2.4261451"
               x="87.227272"
               y="163.97981" />
          </g>
          <g
             transform="translate(-8.1604006,2.7201335)"
             id="g10818">
            <path
               style="fill:#c75032;stroke:#000000;stroke-width:11.93448925;stroke-miterlimit:4;stroke-dasharray:none;stroke-opacity:1"
               inkscape:connector-curvature="0"
               id="path10110"
               d="m 241.612,378.128 c 17.04,0 30.86,-13.82 30.86,-30.843 V 157.914 h 44.535 l 19.478,45.526 c 0.99,2.298 3.476,3.601 5.943,3.115 2.468,-0.521 4.243,-2.691 4.243,-5.205 v -79.846 c 0,-8.396 -6.821,-15.2 -15.202,-15.2 H 152.963 c -8.397,0 -15.187,6.805 -15.187,15.2 v 79.828 c 0,2.531 1.761,4.701 4.229,5.206 2.468,0.502 4.954,-0.787 5.943,-3.114 l 19.478,-45.511 h 43.326 v 189.371 c 10e-4,17.023 13.82,30.844 30.86,30.844 z" />
            <rect
               style="fill:#c75032;stroke:#000000;stroke-width:11.93448925;stroke-miterlimit:4;stroke-dasharray:none;stroke-opacity:1"
               id="rect10112"
               height="32.193001"
               width="224.658"
               y="32.749001"
               x="129.888" />
            <rect
               style="fill:#c75032;stroke:#000000;stroke-width:11.93448925;stroke-miterlimit:4;stroke-dasharray:none;stroke-opacity:1"
               id="rect10114"
               height="224.632"
               width="32.196999"
               y="129.89999"
               x="32.762001" />
            <rect
               style="fill:#c75032;stroke:#000000;stroke-width:11.93448925;stroke-miterlimit:4;stroke-dasharray:none;stroke-opacity:1"
               id="rect10116"
               height="32.195"
               width="224.658"
               y="419.48801"
               x="129.888" />
            <rect
               style="fill:#c75032;stroke:#000000;stroke-width:11.93448925;stroke-miterlimit:4;stroke-dasharray:none;stroke-opacity:1"
               id="rect10118"
               height="224.617"
               width="32.199001"
               y="129.91499"
               x="419.487" />
            <path
               style="fill:#c75032;stroke:#000000;stroke-width:11.93448925;stroke-miterlimit:4;stroke-dasharray:none;stroke-opacity:1"
               inkscape:connector-curvature="0"
               id="path10120"
               d="M 75.947,386.727 H 21.761 C 9.748,386.727 0,396.473 0,408.483 v 54.189 c 0,12.01 9.748,21.756 21.761,21.756 h 54.186 c 12.013,0 21.743,-9.746 21.743,-21.756 v -54.189 c 0,-12.01 -9.73,-21.756 -21.743,-21.756 z" />
            <path
               style="fill:#c75032;stroke:#000000;stroke-width:11.93448925;stroke-miterlimit:4;stroke-dasharray:none;stroke-opacity:1"
               inkscape:connector-curvature="0"
               id="path10122"
               d="M 462.673,386.727 H 408.5 c -12.027,0 -21.756,9.746 -21.756,21.756 v 54.189 c 0,12.01 9.729,21.756 21.756,21.756 h 54.173 c 12.026,0 21.757,-9.746 21.757,-21.756 v -54.189 c 0,-12.01 -9.73,-21.756 -21.757,-21.756 z" />
            <path
               style="fill:#c75032;stroke:#000000;stroke-width:11.93448925;stroke-miterlimit:4;stroke-dasharray:none;stroke-opacity:1"
               inkscape:connector-curvature="0"
               id="path10124"
               d="M 75.947,0.002 H 21.761 C 9.748,0.002 0,9.746 0,21.756 v 54.191 c 0,12.01 9.748,21.758 21.761,21.758 h 54.186 c 12.013,0 21.743,-9.748 21.743,-21.758 V 21.756 C 97.69,9.746 87.96,0.002 75.947,0.002 Z" />
            <path
               style="fill:#c75032;stroke:#000000;stroke-width:11.93448925;stroke-miterlimit:4;stroke-dasharray:none;stroke-opacity:1"
               inkscape:connector-curvature="0"
               id="path10126"
               d="M 462.673,0.017 H 408.5 c -12.027,0 -21.756,9.751 -21.756,21.759 v 54.185 c 0,12.012 9.729,21.761 21.756,21.761 h 54.173 c 12.026,0 21.757,-9.749 21.757,-21.761 V 21.776 C 484.43,9.768 474.7,0.017 462.673,0.017 Z" />
          </g>
        </g>
      </g>
    </g>
    <g
       id="g10130"
       transform="matrix(0.07109354,0,0,0.07109354,82.800031,127.36517)" />
    <g
       id="g10132"
       transform="matrix(0.07109354,0,0,0.07109354,82.800031,127.36517)" />
    <g
       id="g10134"
       transform="matrix(0.07109354,0,0,0.07109354,82.800031,127.36517)" />
    <g
       id="g10136"
       transform="matrix(0.07109354,0,0,0.07109354,82.800031,127.36517)" />
    <g
       id="g10138"
       transform="matrix(0.07109354,0,0,0.07109354,82.800031,127.36517)" />
    <g
       id="g10140"
       transform="matrix(0.07109354,0,0,0.07109354,82.800031,127.36517)" />
    <g
       id="g10142"
       transform="matrix(0.07109354,0,0,0.07109354,82.800031,127.36517)" />
    <g
       id="g10144"
       transform="matrix(0.07109354,0,0,0.07109354,82.800031,127.36517)" />
    <g
       id="g10146"
       transform="matrix(0.07109354,0,0,0.07109354,82.800031,127.36517)" />
    <g
       id="g10148"
       transform="matrix(0.07109354,0,0,0.07109354,82.800031,127.36517)" />
    <g
       id="g10150"
       transform="matrix(0.07109354,0,0,0.07109354,82.800031,127.36517)" />
    <g
       id="g10152"
       transform="matrix(0.07109354,0,0,0.07109354,82.800031,127.36517)" />
    <g
       id="g10154"
       transform="matrix(0.07109354,0,0,0.07109354,82.800031,127.36517)" />
    <g
       id="g10156"
       transform="matrix(0.07109354,0,0,0.07109354,82.800031,127.36517)" />
    <g
       id="g10158"
       transform="matrix(0.07109354,0,0,0.07109354,82.800031,127.36517)" />
  </g>
</svg>
